<svg width="35" height="35" viewBox="0 0 35 35" fill="none" xmlns="http://www.w3.org/2000/svg">
<path d="M28.4375 18.3342L17.5 29.1667L6.56247 18.3342C5.84104 17.6322 5.27278 16.7884 4.89348 15.8559C4.51417 14.9235 4.33204 13.9227 4.35855 12.9164C4.38505 11.9101 4.61963 10.9202 5.04749 10.009C5.47536 9.09788 6.08725 8.28518 6.84464 7.62211C7.60203 6.95904 8.4885 6.45998 9.44824 6.15634C10.408 5.8527 11.4202 5.75107 12.4211 5.85785C13.4221 5.96462 14.3901 6.27749 15.2642 6.77675C16.1383 7.27601 16.8995 7.95085 17.5 8.75876C18.103 7.95671 18.8652 7.28777 19.7387 6.79381C20.6121 6.29985 21.5782 5.9915 22.5763 5.88806C23.5745 5.78462 24.5832 5.88832 25.5394 6.19267C26.4956 6.49701 27.3788 6.99545 28.1335 7.65679C28.8882 8.31813 29.4983 9.12814 29.9256 10.0361C30.3529 10.9441 30.5881 11.9305 30.6167 12.9335C30.6452 13.9366 30.4664 14.9348 30.0914 15.8656C29.7164 16.7964 29.1534 17.6398 28.4375 18.3429" stroke="#39495B" stroke-width="2" stroke-linecap="round" stroke-linejoin="round"/>
</svg>
