<svg width="183" height="31" viewBox="0 0 183 31" fill="none" xmlns="http://www.w3.org/2000/svg">
<path d="M0 0.755968H10.1454C11.5487 0.755968 12.9035 0.884823 14.2096 1.14867C15.5158 1.41251 16.6761 1.86657 17.6967 2.50471C18.7113 3.14285 19.5253 4.00188 20.1329 5.08794C20.7404 6.174 21.038 7.54845 21.038 9.21129C21.038 11.3527 20.4548 13.1444 19.2823 14.5864C18.1159 16.0283 16.4453 16.9058 14.2704 17.2126L22.0283 30.2514H15.7588L8.99114 17.7525H5.1942V30.2514H0V0.755968ZM9.24022 13.2549C9.98138 13.2549 10.7225 13.2181 11.4698 13.1506C12.2109 13.0831 12.8913 12.9174 13.511 12.6474C14.1307 12.3836 14.6288 11.9786 15.0176 11.4386C15.4004 10.8987 15.5948 10.1378 15.5948 9.16834C15.5948 8.30931 15.4125 7.61595 15.0602 7.08212C14.7017 6.55443 14.2339 6.16173 13.6568 5.89788C13.0797 5.63404 12.4418 5.46223 11.7371 5.37633C11.0384 5.29043 10.352 5.25361 9.69585 5.25361H5.20028V13.2549H9.24022Z" fill="white"/>
<path d="M46.0796 30.2514H25.9892V25.5022H40.8793V17.5009H27.4716V12.7517H40.8793V5.49905H26.7304V0.755968H46.0796V30.2576V30.2514Z" fill="white"/>
<path d="M47.811 0.755968H53.7949L61.7594 23.0478L69.9668 0.755968H75.5741L63.7763 30.2576H59.2808L47.811 0.755968Z" fill="white"/>
<path d="M47.811 0.755968H53.7949L61.7594 23.0478L63.7824 30.2576H59.2868L47.811 0.755968Z" fill="white"/>
<path d="M78.7089 0.755968H98.0581V5.50518H83.9092V12.7579H97.3169V17.5071H83.9092V25.5083H98.7992V30.2576H78.7089V0.755968Z" fill="white"/>
<path d="M103.914 0.755968H114.066C115.469 0.755968 116.824 0.884823 118.13 1.14867C119.436 1.41251 120.597 1.86657 121.617 2.50471C122.632 3.14285 123.446 4.00188 124.053 5.08794C124.655 6.174 124.959 7.54845 124.959 9.21129C124.959 11.3527 124.375 13.1444 123.203 14.5864C122.036 16.0283 120.366 16.9058 118.191 17.2126L125.949 30.2514H119.679L112.912 17.7525H109.115V30.2514H103.914V0.755968ZM113.155 13.2549C113.896 13.2549 114.637 13.2181 115.384 13.1506C116.125 13.0831 116.806 12.9174 117.425 12.6474C118.045 12.3836 118.543 11.9786 118.932 11.4386C119.315 10.8987 119.509 10.1378 119.509 9.16834C119.509 8.30931 119.327 7.61595 118.975 7.08212C118.616 6.55443 118.148 6.16173 117.571 5.89788C116.994 5.63404 116.356 5.46223 115.652 5.37633C114.947 5.29043 114.272 5.25361 113.61 5.25361H109.115V13.2549H113.161H113.155Z" fill="white"/>
<path d="M144.223 7.08825C143.67 6.28445 142.935 5.6954 142.017 5.31497C141.1 4.93454 140.128 4.75046 139.107 4.75046C138.5 4.75046 137.917 4.81796 137.352 4.95908C136.787 5.10021 136.276 5.32111 135.827 5.6279C135.371 5.9347 135.007 6.3274 134.733 6.81827C134.46 7.30301 134.32 7.87979 134.32 8.54861C134.32 9.54877 134.667 10.3096 135.353 10.8373C136.04 11.365 136.896 11.8252 137.911 12.2118C138.925 12.5983 140.043 12.9788 141.252 13.3346C142.461 13.6967 143.579 14.1937 144.593 14.8318C145.608 15.4699 146.464 16.3167 147.151 17.3721C147.837 18.4275 148.184 19.8326 148.184 21.5813C148.184 23.1644 147.898 24.545 147.315 25.7292C146.738 26.9073 145.96 27.8891 144.982 28.6683C144.004 29.4476 142.868 30.0305 141.58 30.4171C140.286 30.8037 138.925 31 137.498 31C135.681 31 133.938 30.6932 132.261 30.0857C130.584 29.4783 129.138 28.4475 127.929 27.0055L131.848 23.1705C132.48 24.1462 133.312 24.9009 134.345 25.4408C135.377 25.9808 136.471 26.2508 137.625 26.2508C138.227 26.2508 138.834 26.1649 139.442 25.9992C140.049 25.8335 140.596 25.582 141.094 25.2506C141.586 24.9193 141.987 24.4959 142.291 23.9805C142.595 23.4651 142.746 22.876 142.746 22.2072C142.746 21.1211 142.4 20.2928 141.714 19.7099C141.027 19.127 140.171 18.6361 139.156 18.2311C138.135 17.8261 137.024 17.4457 135.815 17.0837C134.606 16.7217 133.488 16.2308 132.473 15.6049C131.453 14.9791 130.602 14.1446 129.916 13.1076C129.229 12.0645 128.883 10.6716 128.883 8.9229C128.883 7.39505 129.193 6.07583 129.813 4.96522C130.432 3.85462 131.24 2.92809 132.249 2.19178C133.251 1.45546 134.399 0.909366 135.693 0.547346C136.975 0.185326 138.293 0.00124775 139.642 0.00124775C141.185 0.00124775 142.674 0.240549 144.119 0.713016C145.565 1.18548 146.865 1.96475 148.02 3.04467L144.223 7.08825Z" fill="white"/>
<path d="M152.017 15.6295C152.017 13.2671 152.4 11.1257 153.171 9.19288C153.943 7.26006 155.006 5.61563 156.367 4.25345C157.728 2.89127 159.35 1.84203 161.233 1.10572C163.122 0.369404 165.188 0.00124775 167.448 0.00124775C169.732 -0.023296 171.822 0.31418 173.717 1.01981C175.613 1.72545 177.253 2.76242 178.626 4.1246C179.999 5.48678 181.074 7.12507 181.846 9.03948C182.617 10.9539 183 13.0953 183 15.4577C183 17.82 182.617 19.8633 181.846 21.747C181.074 23.6369 180.005 25.2629 178.626 26.6189C177.253 27.9811 175.613 29.0426 173.717 29.8096C171.822 30.5705 169.726 30.9693 167.448 30.9939C165.194 30.9939 163.122 30.6257 161.239 29.8894C159.356 29.1531 157.734 28.11 156.373 26.7662C155.012 25.4224 153.943 23.8025 153.177 21.9127C152.412 20.0228 152.023 17.9243 152.023 15.6233L152.017 15.6295ZM157.46 15.2981C157.46 16.8812 157.703 18.3416 158.183 19.6731C158.663 21.0046 159.344 22.1581 160.224 23.1337C161.105 24.1093 162.156 24.8702 163.384 25.4224C164.605 25.9808 165.978 26.2569 167.49 26.2569C169.003 26.2569 170.376 25.9808 171.615 25.4224C172.855 24.8702 173.912 24.1032 174.793 23.1337C175.673 22.1643 176.354 21.0107 176.834 19.6731C177.314 18.3416 177.557 16.8812 177.557 15.2981C177.557 13.8255 177.314 12.4511 176.834 11.1748C176.354 9.89851 175.673 8.78177 174.793 7.81843C173.912 6.86123 172.855 6.11264 171.615 5.56654C170.376 5.02658 169.003 4.7566 167.49 4.7566C165.978 4.7566 164.611 5.02658 163.384 5.56654C162.162 6.1065 161.105 6.86123 160.224 7.81843C159.344 8.77564 158.663 9.89238 158.183 11.1748C157.703 12.4511 157.46 13.8255 157.46 15.2981Z" fill="white"/>
</svg>
