<svg id="Layer_1" data-name="Layer 1" xmlns="http://www.w3.org/2000/svg" xmlns:xlink="http://www.w3.org/1999/xlink" viewBox="0 0 818.71 137.32"><defs><style>.cls-1{fill:#b49c86;}.cls-2{fill:url(#linear-gradient);}.cls-3{fill:#39495b;}</style><linearGradient id="linear-gradient" x1="-771.06" y1="1205.21" x2="-729.21" y2="1109.84" gradientTransform="translate(1043.47 -939.92)" gradientUnits="userSpaceOnUse"><stop offset="0" stop-color="#855f4d"/><stop offset="1" stop-color="#ba9e8d"/></linearGradient></defs><title>logo</title><path class="cls-1" d="M45.9,147.29H91.31a92.49,92.49,0,0,1,18.18,1.76,46.55,46.55,0,0,1,15.59,6A31.51,31.51,0,0,1,136,166.49q4,7.2,4.06,18.27,0,14.2-7.84,23.81t-22.43,11.62L144.46,278H116.41L86.14,222.59h-17V278H45.9Zm41.35,55.37q5,0,10-.46a30.7,30.7,0,0,0,9.14-2.22,15.48,15.48,0,0,0,6.73-5.35q2.6-3.6,2.59-10.06a16,16,0,0,0-2.4-9.22,14.81,14.81,0,0,0-6.28-5.26,28.82,28.82,0,0,0-8.58-2.31,78,78,0,0,0-9.13-.55H69.16v35.43Z" transform="translate(-45.9 -143.96)"/><path class="cls-1" d="M252.06,278H162.18v-21H228.8V221.49h-60v-21h60V168.33H165.5v-21h86.56Z" transform="translate(-45.9 -143.96)"/><path class="cls-2" d="M259.81,147.29h26.76L322.19,246l36.73-98.74H384L331.23,278H311.12Z" transform="translate(-45.9 -143.96)"/><path class="cls-3" d="M259.81,147.29h26.76L322.19,246l9,31.93H311.12Z" transform="translate(-45.9 -143.96)"/><path class="cls-3" d="M398,147.29H484.6v21H421.3v32.12h60v21h-60v35.43h66.63v21H398Z" transform="translate(-45.9 -143.96)"/><path class="cls-3" d="M510.81,147.29h45.4a92.35,92.35,0,0,1,18.18,1.76,46.6,46.6,0,0,1,15.6,6,31.51,31.51,0,0,1,10.89,11.45q4.05,7.2,4.06,18.27,0,14.2-7.85,23.81t-22.42,11.62L609.37,278h-28l-30.27-55.37h-17V278H510.81Zm41.34,55.37q5,0,10-.46a30.56,30.56,0,0,0,9.13-2.22,15.5,15.5,0,0,0,6.74-5.35q2.58-3.6,2.59-10.06a16.11,16.11,0,0,0-2.4-9.22,14.81,14.81,0,0,0-6.28-5.26,28.82,28.82,0,0,0-8.58-2.31,78,78,0,0,0-9.14-.55H534.07v35.43Z" transform="translate(-45.9 -143.96)"/><path class="cls-3" d="M691.13,175.35a21.52,21.52,0,0,0-9.88-7.85,34.5,34.5,0,0,0-13-2.49,33.19,33.19,0,0,0-7.84.92,21.4,21.4,0,0,0-6.83,2.95,15.35,15.35,0,0,0-4.89,5.27,15.06,15.06,0,0,0-1.85,7.66q0,6.63,4.61,10.15a45.52,45.52,0,0,0,11.45,6.09q6.83,2.58,15,5a61.36,61.36,0,0,1,14.95,6.64,37.1,37.1,0,0,1,11.44,11.26q4.6,7,4.61,18.64A41.08,41.08,0,0,1,705,257.94a37.5,37.5,0,0,1-10.43,13,45,45,0,0,1-15.23,7.75A63.73,63.73,0,0,1,661,281.28a68.47,68.47,0,0,1-23.44-4.06,45.08,45.08,0,0,1-19.38-13.65l17.54-17a29.34,29.34,0,0,0,11.16,10.07,31.5,31.5,0,0,0,14.68,3.59,30.71,30.71,0,0,0,8.12-1.1,25.46,25.46,0,0,0,7.38-3.32,17.37,17.37,0,0,0,5.35-5.64,15,15,0,0,0,2-7.84q0-7.2-4.61-11.07a40.84,40.84,0,0,0-11.44-6.56q-6.84-2.67-14.95-5.07a62.75,62.75,0,0,1-15-6.55A36.32,36.32,0,0,1,627.08,202q-4.61-6.91-4.61-18.55a35.21,35.21,0,0,1,4.15-17.53,38,38,0,0,1,10.89-12.27,47.57,47.57,0,0,1,15.41-7.29,66.13,66.13,0,0,1,17.72-2.4,64.73,64.73,0,0,1,20,3.14,46.34,46.34,0,0,1,17.43,10.33Z" transform="translate(-45.9 -143.96)"/><path class="cls-3" d="M726,213.18a75.73,75.73,0,0,1,5.16-28.51,63.9,63.9,0,0,1,14.31-21.87,62.67,62.67,0,0,1,21.78-13.94A76.31,76.31,0,0,1,795,144a77.69,77.69,0,0,1,28.06,4.52,61.39,61.39,0,0,1,22,13.75A63.46,63.46,0,0,1,859.44,184a74.89,74.89,0,0,1,5.17,28.42,72.44,72.44,0,0,1-5.17,27.87,63.72,63.72,0,0,1-14.39,21.59,65.76,65.76,0,0,1-22,14.12A77.54,77.54,0,0,1,795,281.28a76.31,76.31,0,0,1-27.77-4.89,62.29,62.29,0,0,1-36.09-35.34A72.66,72.66,0,0,1,726,213.18Zm24.36-1.47a56.2,56.2,0,0,0,3.23,19.37,45.48,45.48,0,0,0,9.13,15.32,42.53,42.53,0,0,0,14.12,10.15,44.2,44.2,0,0,0,18.37,3.69,44.85,44.85,0,0,0,18.46-3.69,42.39,42.39,0,0,0,14.21-10.15A45.48,45.48,0,0,0,837,231.08a56.2,56.2,0,0,0,3.23-19.37A51,51,0,0,0,837,193.43a45.24,45.24,0,0,0-9.13-14.85,41.92,41.92,0,0,0-14.21-10,46,46,0,0,0-18.46-3.6,45.31,45.31,0,0,0-18.37,3.6,42.05,42.05,0,0,0-14.12,10,45.24,45.24,0,0,0-9.13,14.85A51,51,0,0,0,750.37,211.71Z" transform="translate(-45.9 -143.96)"/></svg>