<svg width="183" height="27" viewBox="0 0 183 27" fill="none" xmlns="http://www.w3.org/2000/svg">
<path d="M88.7997 7.91448C86.0835 7.90752 83.9158 10.0533 83.9037 12.7633C83.8924 15.5082 86.0488 17.6836 88.7832 17.681C91.4942 17.6783 93.6488 15.5213 93.6523 12.8051C93.6558 10.0872 91.5072 7.92232 88.7997 7.91361V7.91448ZM88.738 15.759C87.1465 15.7242 85.8193 14.3761 85.8202 12.7964C85.8211 11.1932 87.1961 9.82424 88.791 9.83643C90.392 9.84775 91.7575 11.2359 91.734 12.826C91.7097 14.4362 90.3208 15.7956 88.738 15.7599V15.759ZM93.9052 6.44537C93.2386 6.44973 92.7145 6.95917 92.6945 7.62014C92.6745 8.2724 93.2412 8.8637 93.8974 8.87502C94.5719 8.88808 95.1151 8.34468 95.1186 7.65758C95.1212 6.9644 94.5971 6.44189 93.9052 6.44537ZM93.9052 6.44537C93.2386 6.44973 92.7145 6.95917 92.6945 7.62014C92.6745 8.2724 93.2412 8.8637 93.8974 8.87502C94.5719 8.88808 95.1151 8.34468 95.1186 7.65758C95.1212 6.9644 94.5971 6.44189 93.9052 6.44537ZM88.7997 7.91448C86.0835 7.90752 83.9158 10.0533 83.9037 12.7633C83.8924 15.5082 86.0488 17.6836 88.7832 17.681C91.4942 17.6783 93.6488 15.5213 93.6523 12.8051C93.6558 10.0872 91.5072 7.92232 88.7997 7.91361V7.91448ZM88.738 15.759C87.1465 15.7242 85.8193 14.3761 85.8202 12.7964C85.8211 11.1932 87.1961 9.82424 88.791 9.83643C90.392 9.84775 91.7575 11.2359 91.734 12.826C91.7097 14.4362 90.3208 15.7956 88.738 15.7599V15.759ZM98.5475 8.67037C98.5188 5.48571 96.0599 3.02645 92.8744 3.01078C90.1435 2.99597 87.4143 2.99685 84.6842 3.01078C81.4743 3.02733 79.0233 5.49442 79.0085 8.71914C78.9972 11.4362 78.9972 14.1549 79.0085 16.8719C79.0224 20.1184 81.4847 22.5751 84.7329 22.5864C87.4282 22.5969 90.1243 22.5969 92.8188 22.5864C96.0938 22.5733 98.5345 20.115 98.5492 16.8232C98.5553 15.4995 98.5501 14.1758 98.5501 12.8513C98.5501 11.4579 98.5605 10.0646 98.5475 8.67124V8.67037ZM96.6205 16.9033C96.6127 19.1457 95.1256 20.6453 92.8953 20.6549C90.1487 20.6662 87.4021 20.6662 84.6546 20.6549C82.4443 20.6453 80.9476 19.1553 80.9363 16.9503C80.9224 14.1811 80.9224 11.41 80.9372 8.64076C80.9485 6.43754 82.4487 4.95624 84.6607 4.94056C86.034 4.93098 87.4073 4.93795 88.7806 4.93795C90.1539 4.93795 91.4933 4.9336 92.8501 4.93882C95.123 4.94927 96.6127 6.42883 96.6205 8.69824C96.6301 11.4327 96.6301 14.1671 96.6205 16.9033ZM93.9052 6.44537C93.2386 6.44973 92.7145 6.95917 92.6945 7.62014C92.6745 8.2724 93.2412 8.8637 93.8974 8.87502C94.5719 8.88808 95.1151 8.34468 95.1186 7.65758C95.1212 6.9644 94.5971 6.44189 93.9052 6.44537ZM88.7997 7.91448C86.0835 7.90752 83.9158 10.0533 83.9037 12.7633C83.8924 15.5082 86.0488 17.6836 88.7832 17.681C91.4942 17.6783 93.6488 15.5213 93.6523 12.8051C93.6558 10.0872 91.5072 7.92232 88.7997 7.91361V7.91448ZM88.738 15.759C87.1465 15.7242 85.8193 14.3761 85.8202 12.7964C85.8211 11.1932 87.1961 9.82424 88.791 9.83643C90.392 9.84775 91.7575 11.2359 91.734 12.826C91.7097 14.4362 90.3208 15.7956 88.738 15.7599V15.759ZM88.7997 7.91448C86.0835 7.90752 83.9158 10.0533 83.9037 12.7633C83.8924 15.5082 86.0488 17.6836 88.7832 17.681C91.4942 17.6783 93.6488 15.5213 93.6523 12.8051C93.6558 10.0872 91.5072 7.92232 88.7997 7.91361V7.91448ZM88.738 15.759C87.1465 15.7242 85.8193 14.3761 85.8202 12.7964C85.8211 11.1932 87.1961 9.82424 88.791 9.83643C90.392 9.84775 91.7575 11.2359 91.734 12.826C91.7097 14.4362 90.3208 15.7956 88.738 15.7599V15.759ZM93.9052 6.44537C93.2386 6.44973 92.7145 6.95917 92.6945 7.62014C92.6745 8.2724 93.2412 8.8637 93.8974 8.87502C94.5719 8.88808 95.1151 8.34468 95.1186 7.65758C95.1212 6.9644 94.5971 6.44189 93.9052 6.44537ZM88.7997 7.91448C86.0835 7.90752 83.9158 10.0533 83.9037 12.7633C83.8924 15.5082 86.0488 17.6836 88.7832 17.681C91.4942 17.6783 93.6488 15.5213 93.6523 12.8051C93.6558 10.0872 91.5072 7.92232 88.7997 7.91361V7.91448ZM88.738 15.759C87.1465 15.7242 85.8193 14.3761 85.8202 12.7964C85.8211 11.1932 87.1961 9.82424 88.791 9.83643C90.392 9.84775 91.7575 11.2359 91.734 12.826C91.7097 14.4362 90.3208 15.7956 88.738 15.7599V15.759ZM93.9052 6.44537C93.2386 6.44973 92.7145 6.95917 92.6945 7.62014C92.6745 8.2724 93.2412 8.8637 93.8974 8.87502C94.5719 8.88808 95.1151 8.34468 95.1186 7.65758C95.1212 6.9644 94.5971 6.44189 93.9052 6.44537Z" fill="white"/>
<path d="M138.2 11.2806C137.271 5.75777 131.818 2.05234 126.328 3.21317C119.656 4.62306 116.349 11.9172 119.672 17.8764C119.735 17.9896 119.75 18.1707 119.711 18.2944C119.39 19.2854 119.053 20.2695 118.719 21.2561C118.484 21.9528 118.249 22.6486 118 23.3836C118.129 23.3453 118.217 23.3209 118.304 23.293C119.953 22.7696 121.601 22.2497 123.247 21.7194C123.431 21.6602 123.579 21.6645 123.755 21.7542C125.768 22.7836 127.89 23.0997 130.116 22.713C135.483 21.7821 139.103 16.6598 138.2 11.2824L138.2 11.2806ZM130.327 21.0637C128.055 21.5896 125.915 21.2439 123.91 20.0448C123.8 19.9795 123.623 19.9603 123.499 19.9969C122.631 20.2599 121.769 20.542 120.905 20.8181C120.79 20.8538 120.673 20.8843 120.494 20.9356C120.822 19.9647 121.124 19.0581 121.44 18.1568C121.516 17.9417 121.503 17.7815 121.371 17.5838C117.992 12.5869 120.926 5.73687 126.876 4.7145C131.441 3.93074 135.714 6.86025 136.615 11.3912C137.47 15.6984 134.636 20.0674 130.327 21.0637H130.327Z" fill="white"/>
<path d="M123.465 10.6379C123.497 9.95168 123.75 9.36908 124.197 8.85529C124.568 8.42857 125.057 8.35891 125.564 8.39113C125.693 8.39897 125.864 8.56617 125.926 8.70115C126.229 9.36386 126.51 10.037 126.777 10.7145C126.822 10.8286 126.8 11.0115 126.736 11.1177C126.575 11.3825 126.39 11.6376 126.181 11.8658C125.991 12.0739 125.96 12.2481 126.11 12.4945C126.915 13.8069 128.017 14.7587 129.451 15.323C129.659 15.4049 129.816 15.3709 129.954 15.2002C130.192 14.9059 130.445 14.622 130.669 14.3172C130.817 14.1169 130.99 14.0455 131.207 14.1456C131.894 14.4626 132.579 14.7814 133.25 15.1297C133.352 15.1828 133.423 15.3988 133.418 15.5364C133.384 16.5509 132.678 17.3207 131.681 17.5315C131.122 17.6499 130.604 17.575 130.064 17.4322C127.717 16.8113 125.953 15.4092 124.596 13.4333C124.143 12.7741 123.704 12.1131 123.548 11.3119C123.504 11.0899 123.492 10.8626 123.465 10.637V10.6379Z" fill="white"/>
<path d="M21.5103 12.7758C21.5103 18.3082 17.3496 22.8662 11.992 23.481C11.5861 23.5272 11.1732 23.5516 10.7552 23.5516C10.0885 23.5516 9.43662 23.4906 8.80386 23.3748C3.79481 22.4552 0 18.0592 0 12.7758C0 6.82446 4.81522 2 10.7552 2C16.6951 2 21.5103 6.82446 21.5103 12.7758Z" fill="white"/>
<path d="M14.3587 15.0477H12.0041C12.011 17.8562 12.0171 20.6655 12.0241 23.4731C12.0128 23.4749 12.0032 23.4775 11.9919 23.4809C11.586 23.5271 11.1731 23.5515 10.7551 23.5515C10.0884 23.5515 9.43653 23.4905 8.80378 23.3747C8.80464 20.5993 8.80464 17.8248 8.80551 15.0486H7.22449V11.8544H8.789C8.789 11.4642 8.77422 11.1133 8.79248 10.7649C8.81594 10.3199 8.81334 9.86361 8.91155 9.43168C9.23662 8.00263 10.2266 7.17185 11.7607 7.0778C12.6707 7.02206 13.5868 7.06647 14.5003 7.06822C14.5264 7.06822 14.5525 7.08563 14.609 7.10566C14.609 7.89726 14.609 8.69582 14.6081 9.49438C14.6081 9.58756 14.5994 9.68074 14.5925 9.80353C14.0545 9.80353 13.5338 9.80353 13.0123 9.8044C12.3387 9.8044 12.1223 10.0204 12.1205 10.6927C12.1197 11.0636 12.1205 11.4346 12.1205 11.8387H14.6524C14.5525 12.9237 14.4578 13.9722 14.3595 15.0477H14.3587Z" fill="#363D46"/>
<path d="M60.4017 6.87492C59.6803 7.19278 58.9111 7.40439 58.1097 7.50628C58.9345 7.01164 59.5638 6.23398 59.8593 5.29696C59.0901 5.75763 58.2418 6.08333 57.337 6.26446C56.6069 5.48332 55.5665 5 54.4313 5C52.2289 5 50.4557 6.79654 50.4566 8.99803C50.4566 9.31501 50.4836 9.61894 50.5487 9.9098C47.2415 9.74782 44.315 8.15593 42.349 5.73064C42.0056 6.3289 41.8049 7.01338 41.8049 7.75099C41.8049 9.13475 42.5141 10.3618 43.5719 11.0715C42.933 11.0593 42.3055 10.873 41.7744 10.5803V10.6239C41.7744 12.5659 43.1538 14.1787 44.9617 14.5496C44.6375 14.6385 44.2855 14.6811 43.9187 14.6811C43.664 14.6811 43.4067 14.6663 43.166 14.6132C43.6814 16.1955 45.1442 17.359 46.8834 17.3964C45.5301 18.4597 43.8118 19.1015 41.9517 19.1015C41.6258 19.1015 41.3129 19.0867 41 19.0467C42.7618 20.1883 44.8504 20.8397 47.1025 20.8397C54.4226 20.8397 58.4243 14.7464 58.4235 9.46654C58.4235 9.28976 58.4174 9.11908 58.4087 8.95013C59.1988 8.38757 59.8611 7.68393 60.4026 6.87492H60.4017Z" fill="white"/>
<path d="M175.187 5.00087H174.561L167.034 10.9705L159.507 5.00087H158.88C157.841 5.00087 157 5.84733 157 6.89234V18.2333C157 19.2783 157.841 20.1248 158.88 20.1248H159.507V8.33271L167.034 14.1464L174.556 8.33271V20.1204H175.183C176.222 20.1204 177.063 19.2739 177.063 18.2289V6.88798C177.067 5.84733 176.226 5 175.187 5V5.00087Z" fill="white"/>
</svg>
