<svg width="75" height="75" viewBox="0 0 75 75" fill="none" xmlns="http://www.w3.org/2000/svg">
<path d="M37.5 25V65.625M37.5 25C37.5 25 37.5 20.3351 37.5 18.75C37.5 15.2982 40.2982 12.5 43.75 12.5C47.2018 12.5 50 15.2982 50 18.75C50 22.2018 47.2018 25 43.75 25C41.8833 25 37.5 25 37.5 25ZM37.5 25C37.5 25 37.5 18.9466 37.5 17.1875C37.5 12.8728 34.0022 9.375 29.6875 9.375C25.3728 9.375 21.875 12.8728 21.875 17.1875C21.875 21.5022 25.3728 25 29.6875 25C32.2431 25 37.5 25 37.5 25ZM15.625 37.5H59.375M15.625 37.5C12.1732 37.5 9.375 34.7018 9.375 31.25C9.375 27.7982 12.1732 25 15.625 25H59.375C62.8268 25 65.625 27.7982 65.625 31.25C65.625 34.7018 62.8268 37.5 59.375 37.5M15.625 37.5L15.625 59.375C15.625 62.8268 18.4232 65.625 21.875 65.625H53.125C56.5768 65.625 59.375 62.8268 59.375 59.375V37.5" stroke="#39495B" stroke-width="2" stroke-linecap="round" stroke-linejoin="round"/>
</svg>
