<svg width="75" height="75" viewBox="0 0 75 75" fill="none" xmlns="http://www.w3.org/2000/svg">
<path d="M62.7656 53.125C64.3281 48.4375 65.625 41.9906 65.625 37.5C65.625 33.8066 64.8975 30.1493 63.4841 26.737C62.0707 23.3247 59.999 20.2243 57.3874 17.6126C54.7757 15.001 51.6753 12.9293 48.263 11.5159C44.8507 10.1025 41.1934 9.375 37.5 9.375C33.8066 9.375 30.1493 10.1025 26.737 11.5159C23.3247 12.9293 20.2243 15.001 17.6126 17.6126C15.001 20.2243 12.9293 23.3247 11.5159 26.737C10.1025 30.1493 9.375 33.8066 9.375 37.5C9.375 41.9906 10.6719 48.4375 12.2344 53.125" stroke="#39495B" stroke-width="2" stroke-linecap="round" stroke-linejoin="round"/>
<path d="M22.6219 45.6656L28.0532 61.2624C28.45 62.7812 27.1532 64.5499 25.7125 65.1624C24.5884 65.5352 23.4017 65.6824 22.2206 65.5957C21.0394 65.5089 19.887 65.1899 18.8294 64.6569C17.7717 64.1238 16.8297 63.3873 16.0573 62.4895C15.2849 61.5917 14.6973 60.5503 14.3282 59.4249L12.9594 55.2812C12.2064 53.0068 12.3846 50.5268 13.4551 48.3835C14.5256 46.2401 16.4013 44.6079 18.6719 43.8437C20.1938 43.4781 22.0407 44.2093 22.6219 45.6656Z" stroke="#39495B" stroke-width="2" stroke-linecap="round" stroke-linejoin="round"/>
<path d="M52.3782 45.6656L46.95 61.2624C46.55 62.7812 47.8469 64.5499 49.2875 65.1624C50.4117 65.5352 51.5983 65.6824 52.7795 65.5957C53.9607 65.5089 55.1131 65.1899 56.1707 64.6569C57.2283 64.1238 58.1703 63.3873 58.9427 62.4895C59.7152 61.5917 60.3028 60.5503 60.6719 59.4249L62.0407 55.2812C62.7937 53.0068 62.6154 50.5268 61.5449 48.3835C60.4744 46.2401 58.5988 44.6079 56.3282 43.8437C54.8063 43.4781 52.9594 44.2093 52.3782 45.6656Z" stroke="#39495B" stroke-width="2" stroke-linecap="round" stroke-linejoin="round"/>
</svg>
