<svg width="75" height="75" viewBox="0 0 75 75" fill="none" xmlns="http://www.w3.org/2000/svg">
<path d="M18.75 53.125V62.5M56.25 53.125V62.5M62.5 28.125C62.5 22.2812 62.5 19.3625 61.2437 17.1875C60.421 15.7624 59.2376 14.579 57.8125 13.7562C55.6375 12.5 52.7188 12.5 46.875 12.5H28.125C22.2812 12.5 19.3625 12.5 17.1875 13.7562C15.7624 14.579 14.579 15.7624 13.7562 17.1875C12.5 19.3625 12.5 22.2812 12.5 28.125" stroke="#39495B" stroke-width="2" stroke-linecap="round" stroke-linejoin="round"/>
<path d="M62.5 28.125C60.8424 28.125 59.2527 28.7835 58.0806 29.9556C56.9085 31.1277 56.25 32.7174 56.25 34.375V40.625C56.25 43.2094 55.7094 43.75 53.125 43.75H21.875C19.2906 43.75 18.75 43.2094 18.75 40.625V34.375C18.75 33.2779 18.4613 32.2001 17.9127 31.25C17.3642 30.2999 16.5752 29.5109 15.6251 28.9623C14.675 28.4137 13.5972 28.1249 12.5001 28.1249C11.403 28.1249 10.3252 28.4136 9.37507 28.9622C8.42494 29.5107 7.63594 30.2997 7.08737 31.2498C6.53881 32.1999 6.25001 33.2777 6.25 34.3748C6.24999 35.4719 6.53878 36.5497 7.08733 37.4999C7.63588 38.45 8.42487 39.239 9.375 39.7875V40.625C9.375 46.5188 9.375 49.4625 11.2062 51.2938C13.0375 53.125 15.9812 53.125 21.875 53.125H53.125C59.0188 53.125 61.9625 53.125 63.7937 51.2938C65.625 49.4625 65.625 46.5188 65.625 40.625V39.7875C66.8164 39.0996 67.7476 38.0377 68.274 36.7667C68.8005 35.4956 68.8928 34.0863 68.5368 32.7574C68.1807 31.4285 67.3961 30.2542 66.3046 29.4167C65.2131 28.5791 63.8758 28.1251 62.5 28.125Z" stroke="#39495B" stroke-width="2" stroke-linejoin="round"/>
</svg>
