<svg width="75" height="75" viewBox="0 0 75 75" fill="none" xmlns="http://www.w3.org/2000/svg">
<path d="M40.625 50V18.75C40.625 17.0241 39.2259 15.625 37.5 15.625H12.5C10.7741 15.625 9.375 17.0241 9.375 18.75V50C9.375 51.7259 10.7741 53.125 12.5 53.125H15.625M40.625 50C40.625 51.7259 39.2259 53.125 37.5 53.125H28.125M40.625 50L40.625 25C40.625 23.2741 42.0241 21.875 43.75 21.875H51.8306C52.6594 21.875 53.4542 22.2042 54.0403 22.7903L64.7097 33.4597C65.2958 34.0458 65.625 34.8406 65.625 35.6694V50C65.625 51.7259 64.2259 53.125 62.5 53.125H59.375M40.625 50C40.625 51.7259 42.0241 53.125 43.75 53.125H46.875M15.625 53.125C15.625 56.5768 18.4232 59.375 21.875 59.375C25.3268 59.375 28.125 56.5768 28.125 53.125M15.625 53.125C15.625 49.6732 18.4232 46.875 21.875 46.875C25.3268 46.875 28.125 49.6732 28.125 53.125M46.875 53.125C46.875 56.5768 49.6732 59.375 53.125 59.375C56.5768 59.375 59.375 56.5768 59.375 53.125M46.875 53.125C46.875 49.6732 49.6732 46.875 53.125 46.875C56.5768 46.875 59.375 49.6732 59.375 53.125" stroke="#39495B" stroke-width="2"/>
</svg>
